<svg width="34" height="34" viewBox="0 0 34 34" fill="none" xmlns="http://www.w3.org/2000/svg">
<circle cx="17" cy="17" r="17" fill="#2B2B2B"/>
<rect x="22.7134" y="8.18555" width="3.10233" height="3.10233" fill="#C10104"/>
<path d="M22.012 14.643V19.7045C22.012 20.2893 22.4354 20.3094 22.6169 20.3094C22.8791 20.3094 23.3025 20.2893 23.5243 20.2489V22.205C22.9799 22.3058 22.4959 22.4469 21.5482 22.4469C19.7333 22.4469 19.5317 21.479 19.451 21.0757C18.9065 21.6 17.5555 22.5478 14.4299 22.5478C11.6471 22.5478 10.0742 21.2975 10.0742 19.2004C10.0742 16.2562 13.099 15.9941 14.8735 15.8328C18.8662 15.4496 19.2897 15.3085 19.2897 14.4817C19.2897 13.2516 17.8781 12.9492 16.2649 12.9492C14.4299 12.9492 13.4418 13.534 13.341 14.7237H10.6187C11.022 11.9207 13.099 11.0536 16.2649 11.0536C21.8506 11.0536 22.012 13.2516 22.012 14.643ZM19.2292 17.8493V16.8209C18.4226 17.1637 17.5555 17.2645 15.5793 17.4863C13.4821 17.7283 12.978 18.1921 12.978 19.0995C12.978 20.5111 14.2686 20.7732 15.2163 20.7732C16.7085 20.7732 19.2292 20.2086 19.2292 17.8493Z" fill="white"/>
</svg>
